# AST/ASF file generated using VICON BodyLanguage
# -----------------------------------------------
:version 1.10
:name VICON
:units
  mass 1.0
  length 0.45
  angle deg
:documentation
   .ast/.asf automatically generated from VICON data using
   VICON BodyBuilder and BodyLanguage model FoxedUp or BRILLIANT.MOD
:root
   order TX TY TZ RX RY RZ
   axis XYZ
   position 0 0 0  
   orientation 0 0 0 
:bonedata
  begin
     id 1 
     name lhipjoint
     direction 0.578396 -0.714046 0.394458 
     length 2.21935 
     axis 0 0 0  XYZ
  end
  begin
     id 2 
     name lfemur
     direction 0.34202 -0.939693 0  
     length 6.39105  
     axis 0 0 20  XYZ
    dof rx ry rz
    limits (-160.0 20.0)
           (-70.0 70.0)
           (-60.0 70.0)
  end
  begin
     id 3 
     name ltibia
     direction 0.34202 -0.939693 0   
     length 6.99037   
     axis 0 0 20   XYZ
    dof rx
    limits (-10.0 170.0)
  end
  begin
     id 4 
     name lfoot
     direction 0.0582372 -0.160005 0.985397   
     length 2.06111   
     axis -90 7.62852e-016 20   XYZ
    dof rx rz
    limits (-45.0 90.0)
           (-70.0 20.0)
  end
  begin
     id 5 
     name ltoes
     direction 1.53556e-011 -4.21875e-011 1   
     length 1.04074   
     axis -90 7.62852e-016 20   XYZ
    dof rx
    limits (-90.0 20.0)
  end
  begin
     id 6 
     name rhipjoint
     direction -0.558179 -0.726269 0.40121   
     length 2.182  
     axis 0 0 0  XYZ 
  end
  begin
     id 7 
     name rfemur
     direction -0.34202 -0.939693 0   
     length 6.51172   
     axis 0 0 -20   XYZ
    dof rx ry rz
    limits (-160.0 20.0)
           (-70.0 70.0)
           (-70.0 60.0)
  end
  begin
     id 8 
     name rtibia
     direction -0.34202 -0.939693 0   
     length 7.02607   
     axis 0 0 -20   XYZ
    dof rx
    limits (-10.0 170.0)
 end
 begin
     id 9 
     name rfoot
     direction -0.0788856 -0.216737 0.973038   
     length 1.96734  
     axis -90 -7.62852e-016 -20   XYZ
    dof rx rz
    limits (-45.0 90.0)
           (-20.0 70.0)
  end
  begin
     id 10 
     name rtoes
     direction -1.53567e-011 -4.21783e-011 1   
     length 0.990825   
     axis -90 -7.62852e-016 -20   XYZ
    dof rx
    limits (-90.0 20.0)
  end
  begin
     id 11 
     name lowerback
     direction 0.00668177 0.999323 -0.0361741   
     length 1.7655   
     axis 0 0 0   XYZ
    dof rx ry rz
    limits (-20.0 45.0)
           (-30.0 30.0)
           (-30.0 30.0)
  end
  begin
     id 12 
     name upperback
     direction -0.00222086 0.99851 0.0545167   
     length 1.74912   
     axis 0 0 0   XYZ
    dof rx ry rz
    limits (-20.0 45.0)
           (-30.0 30.0)
           (-30.0 30.0)
  end
  begin
     id 13 
     name thorax
     direction -0.00733971 0.997496 0.0703443   
     length 1.75715   
     axis 0 0 0   XYZ
    dof rx ry rz
    limits (-20.0 45.0)
           (-30.0 30.0)
           (-30.0 30.0)
  end
  begin
     id 14 
     name lowerneck
     direction 0.0279797 0.994795 0.0979765   
     length 1.46939   
     axis 0 0 0   XYZ
    dof rx ry rz
    limits (-20.0 45.0)
           (-30.0 30.0)
           (-30.0 30.0)
  end
  begin
     id 15 
     name upperneck
     direction 0.00339187 0.976776 -0.214238   
     length 1.48018   
     axis 0 0 0   XYZ
    dof rx ry rz
    limits (-20.0 45.0)
           (-30.0 30.0)
           (-30.0 30.0)
  end
  begin
     id 16
     name head
     direction -0.00263506 0.996603 -0.0823096  
     length 1.4976  
     axis 0 0 0   XYZ
    dof rx ry rz
    limits (-20.0 45.0)
           (-30.0 30.0)
           (-30.0 30.0)
  end
  begin
     id 17 
     name lclavicle
     direction 0.894044 0.44508 -0.0508781  
     length 3.03024  
     axis 0 0 0   XYZ
    dof ry rz
    limits (-20.0 10.0)
           (0.0 20.0)
  end
  begin
     id 18 
     name lhumerus
     direction 1 -4.48961e-011 -2.39475e-018   
     length 4.4661   
     axis 180 -30 -90   XYZ
    dof rx ry rz
    limits (-60.0 90.0)
           (-90.0 90.0)
           (-90.0 90.0)
  end
  begin
     id 19
     name lradius
     direction 1 -4.48961e-011 9.29328e-028   
     length 3.41414   
     axis 180 -30 -90   XYZ
    dof rx
    limits (-10.0 170.0)
  end
  begin
     id 20
     name lwrist
     direction 1 -4.48985e-011 1.53461e-026   
     length 1.70707   
     axis -1.09697e-014 90 90   XYZ
    dof ry
    limits (-180.0 0.0)
 end
  begin
     id 21 
     name lhand
     direction 1 -4.48966e-011 3.06923e-026   
     length 0.328298   
     axis -1.95843e-014 90 90   XYZ
    dof rx rz
    limits (-90.0 90.0)
           (-45.0 45.0)
  end
  begin
     id 22 
     name lfingers
     direction 1 -4.48893e-011 6.13845e-026   
     length 0.264682   
     axis -3.91686e-014 90 90   XYZ
    dof rx
    limits (0.0 90.0)
  end
  begin
     id 23
     name lthumb
     direction 0.707107 -6.34876e-011 0.707107   
     length 0.380032   
     axis -90 45 2.85299e-015   XYZ
    dof rx rz
    limits (-45.0 45.0)
           (-45.0 45.0)
  end
  begin
     id 24 
     name rclavicle
     direction -0.936955 0.347862 -0.0332887   
     length 3.26927  
     axis 0 0 0   XYZ 
    dof ry rz
    limits (-10.0 20.0)
           (-20.0 0.0)
  end
  begin
     id 25 
     name rhumerus
     direction -1 -4.4896e-011 1.78637e-018  
     length 4.40431   
     axis 180 30 90   XYZ
    dof rx ry rz
    limits (-90.0 60.0)
           (-90.0 90.0)
           (-90.0 90.0)
  end
  begin
     id 26 
     name rradius
     direction -1 -4.48955e-011 9.34036e-027   
     length 3.04688   
     axis 180 30 90   XYZ
    dof rx
    limits (-10.0 170.0)
  end
  begin
     id 27 
     name rwrist
     direction -1 -4.49011e-011 1.53461e-026   
     length 1.52344   
     axis -1.09697e-014 -90 -90   XYZ
    dof ry
    limits (-180.0 0.0)
  end
  begin
     id 28
     name rhand
     direction -1 -4.48834e-011 3.06923e-026   
     length 0.500489   
     axis -1.95843e-014 -90 -90   XYZ
    dof rx rz
    limits (-90.0 90.0)
           (-45.0 45.0)
  end
  begin
     id 29
     name rfingers
     direction -1 -4.48967e-011 6.13845e-026   
     length 0.403507   
     axis -3.91686e-014 -90 -90   XYZ
    dof rx
    limits (0.0 90.0)
  end
  begin
     id 30
     name rthumb
     direction -0.707107 -6.34826e-011 0.707107   
     length 0.579358   
     axis -90 -45 -2.85299e-015   XYZ
    dof rx rz
    limits (-45.0 45.0)
           (-45.0 45.0)
  end
:hierarchy
  begin
    root lhipjoint rhipjoint lowerback
    lhipjoint lfemur
    lfemur ltibia
    ltibia lfoot
    lfoot ltoes
    rhipjoint rfemur
    rfemur rtibia
    rtibia rfoot
    rfoot rtoes
    lowerback upperback
    upperback thorax
    thorax lowerneck lclavicle rclavicle
    lowerneck upperneck
    upperneck head
    lclavicle lhumerus
    lhumerus lradius
    lradius lwrist
    lwrist lhand lthumb
    lhand lfingers
    rclavicle rhumerus
    rhumerus rradius
    rradius rwrist
    rwrist rhand rthumb
    rhand rfingers
  end

#!OML:ASF H:\IndianDance\Patient Classification 1\Patient 1\Session 1\dancer.ASF
:FULLY-SPECIFIED
:DEGREES
635
root 6.73773 14.9792 -0.45835 19.1514 -52.7252 -19.0593
lowerback 6.40255 1.81478 -4.55502
upperback 0.320826 2.11956 1.16272
thorax -3.47062 1.13203 3.5648
lowerneck -17.7249 -2.8282 1.24436
upperneck 20.5443 -8.04557 13.9937
head 10.1376 -2.16173 3.5744
rclavicle 1.49089e-014 1.11319e-014
rhumerus -51.5877 -16.0704 -75.5194
rradius 39.2221
rwrist -10.7111
rhand -13.9879 11.6733
rfingers 7.12502
rthumb 12.1408 -17.9545
lclavicle 1.49089e-014 1.11319e-014
lhumerus -33.8805 4.41053 94.5639
lradius 72.2882
lwrist 8.29291
lhand -30.7011 36.6989
lfingers 7.12502
lthumb -3.99454 66.6412
rfemur -19.7174 -23.7664 35.6517
rtibia 44.3419
rfoot -24.4213 -34.045
rtoes 20.9152
lfemur -30.2111 -15.1636 7.35022
ltibia 39.8334
lfoot -14.7654 -3.85149
ltoes -20.5453
636
root 6.75592 14.9475 -0.43613 19.1266 -52.3147 -18.9094
lowerback 6.77741 1.61415 -4.73402
upperback 0.367679 1.82632 1.312
thorax -3.61461 0.992437 3.8434
lowerneck -17.6271 -2.71422 1.36356
upperneck 20.005 -7.86985 14.1719
head 9.91945 -2.08718 3.63004
rclavicle 2.48481e-014 -7.95139e-015
rhumerus -51.2368 -16.6356 -75.2541
rradius 39.7271
rwrist -10.8383
rhand -14.0979 11.867
rfingers 7.12502
rthumb 12.0347 -17.767
lclavicle 2.48481e-014 -7.95139e-015
lhumerus -34.0754 4.29335 94.5415
lradius 72.1259
lwrist 8.19222
lhand -30.9071 36.994
lfingers 7.12502
lthumb -4.19339 66.9324
rfemur -20.4008 -23.6641 35.6505
rtibia 45.3178
rfoot -24.7217 -34.273
rtoes 20.7341
lfemur -30.9909 -15.3228 7.40583
ltibia 40.4822
lfoot -15.1292 -3.90577
ltoes -21.6839
637
root 6.7761 14.915 -0.416238 19.0996 -51.9126 -18.7321
lowerback 7.1683 1.4257 -4.9252
upperback 0.426188 1.54607 1.44935
thorax -3.75337 0.859291 4.11847
lowerneck -17.5443 -2.60669 1.45288
upperneck 19.4493 -7.68941 14.344
head 9.70006 -2.01419 3.68806
rclavicle 9.81996e-014 -2.22639e-014
rhumerus -50.8454 -17.1704 -75.0741
rradius 40.2138
rwrist -10.9628
rhand -14.2976 12.0989
rfingers 7.12502
rthumb 11.8421 -17.5463
lclavicle 9.81996e-014 -2.22639e-014
lhumerus -34.2212 4.18211 94.511
lradius 71.9521
lwrist 8.08308
lhand -31.1456 37.3517
lfingers 7.12502
lthumb -4.42377 67.2855
rfemur -21.1252 -23.4932 35.6467
rtibia 46.3037
rfoot -25.0512 -34.5368
rtoes 20.6722
lfemur -31.8943 -15.4532 7.46399
ltibia 41.2723
lfoot -15.4114 -4.1529
ltoes -22.311
638
root 6.79767 14.8824 -0.398125 19.0949 -51.5338 -18.5591
lowerback 7.54855 1.25969 -5.11523
upperback 0.503277 1.29501 1.58092
thorax -3.86655 0.739697 4.3873
lowerneck -17.4657 -2.50648 1.52873
upperneck 18.8676 -7.50191 14.4865
head 9.47194 -1.9437 3.73758
rclavicle -4.65156e-014 1.59028e-015
rhumerus -50.414 -17.6622 -74.978
rradius 40.6823
rwrist -11.0928
rhand -14.6066 12.3561
rfingers 7.12502
rthumb 11.5442 -17.306
lclavicle -4.65156e-014 1.59028e-015
lhumerus -34.3168 4.06765 94.4839
lradius 71.77
lwrist 7.98317
lhand -31.408 37.7499
lfingers 7.12502
lthumb -4.67707 67.6783
rfemur -21.8681 -23.2659 35.6534
rtibia 47.2692
rfoot -25.4161 -34.8238
rtoes 20.7625
lfemur -32.8423 -15.5383 7.5156
ltibia 42.1223
lfoot -15.6474 -4.50182
ltoes -22.3358
639
root 6.8203 14.8503 -0.381386 19.1349 -51.1959 -18.427
lowerback 7.91532 1.11802 -5.28841
upperback 0.595238 1.07747 1.71276
thorax -3.95727 0.635568 4.64615
lowerneck -17.3741 -2.40327 1.61329
upperneck 18.2666 -7.29364 14.5743
head 9.23147 -1.87043 3.76835
rclavicle 7.83212e-014 1.74931e-014
rhumerus -49.9551 -18.0659 -74.9758
rradius 41.1354
rwrist -11.2334
rhand -15.0354 12.6486
rfingers 7.12502
rthumb 11.1306 -17.0362
lclavicle 7.83212e-014 1.74931e-014
lhumerus -34.3837 3.96856 94.459
lradius 71.591
lwrist 7.8977
lhand -31.6777 38.1526
lfingers 7.12502
lthumb -4.93751 68.075
rfemur -22.5996 -22.9895 35.6852
rtibia 48.1791
rfoot -25.801 -35.1303
rtoes 20.9813
lfemur -33.7569 -15.5786 7.56181
ltibia 42.9543
lfoot -15.8821 -4.78219
ltoes -22.2623
640
root 6.84368 14.8206 -0.365592 19.2239 -50.9077 -18.3495
lowerback 8.26039 1.00326 -5.43414
upperback 0.706491 0.898676 1.84929
thorax -4.01753 0.548805 4.89234
lowerneck -17.2661 -2.29415 1.71649
upperneck 17.648 -7.06075 14.5934
head 8.97773 -1.79304 3.77457
rclavicle 6.16232e-015 2.8625e-014
rhumerus -49.4682 -18.3578 -75.0642
rradius 41.5821
rwrist -11.3814
rhand -15.5697 12.9866
rfingers 7.12502
rthumb 10.6153 -16.7253
lclavicle 6.16232e-015 2.8625e-014
lhumerus -34.4229 3.89367 94.4478
lradius 71.4216
lwrist 7.82845
lhand -31.943 38.5123
lfingers 7.12502
lthumb -5.19365 68.4286
rfemur -23.2908 -22.684 35.7428
rtibia 49.0038
rfoot -26.1859 -35.4426
rtoes 21.2936
lfemur -34.5832 -15.6141 7.6102
ltibia 43.7118
lfoot -16.1194 -4.89334
ltoes -22.2437
641
root 6.86806 14.7949 -0.350759 19.3546 -50.6737 -18.3226
lowerback 8.59617 0.91667 -5.54755
upperback 0.829919 0.760183 1.98598
thorax -4.06255 0.480534 5.11732
lowerneck -17.136 -2.178 1.84768
upperneck 17.0214 -6.80724 14.545
head 8.71379 -1.71206 3.75519
rclavicle -4.27387e-014 2.70347e-014
rhumerus -48.9706 -18.5284 -75.2356
rradius 42.0352
rwrist -11.523
rhand -16.1583 13.3322
rfingers 7.12502
rthumb 10.0474 -16.408
lclavicle -4.27387e-014 2.70347e-014
lhumerus -34.4459 3.84689 94.4506
lradius 71.2624
lwrist 7.76217
lhand -32.1916 38.7999
lfingers 7.12502
lthumb -5.43375 68.7103
rfemur -23.9282 -22.3575 35.8193
rtibia 49.73
rfoot -26.5499 -35.7517
rtoes 21.6474
lfemur -35.2994 -15.6729 7.66454
ltibia 44.3656
lfoot -16.3572 -4.82509
ltoes -22.2976
642
root 6.89356 14.7728 -0.337037 19.5384 -50.489 -18.3667
lowerback 8.93283 0.855956 -5.61553
upperback 0.961429 0.660023 2.12647
thorax -4.10271 0.429947 5.3171
lowerneck -16.9889 -2.05559 2.00125
upperneck 16.4035 -6.54064 14.4449
head 8.44827 -1.62854 3.71626
rclavicle 2.46493e-014 1.27222e-014
rhumerus -48.4753 -18.579 -75.4772
rradius 42.5078
rwrist -11.6272
rhand -16.7588 13.6752
rfingers 7.12502
rthumb 9.46808 -16.0921
lclavicle 2.46493e-014 1.27222e-014
lhumerus -34.4587 3.83809 94.4688
lradius 71.1148
lwrist 7.69152
lhand -32.4276 38.9705
lfingers 7.12502
lthumb -5.66157 68.8749
rfemur -24.5108 -22.0107 35.926
rtibia 50.3653
rfoot -26.8709 -36.05
rtoes 21.9981
lfemur -35.9103 -15.7733 7.75151
ltibia 44.9144
lfoot -16.5844 -4.58935
ltoes -22.4253
643
root 6.92041 14.7541 -0.324192 19.7792 -50.3522 -18.4855
lowerback 9.28453 0.819844 -5.62697
upperback 1.09153 0.597117 2.26869
thorax -4.15623 0.397172 5.48283
lowerneck -16.836 -1.93069 2.16748
upperneck 15.8122 -6.2724 14.3118
head 8.19161 -1.54501 3.66493
rclavicle -5.64548e-014 -2.54444e-014
rhumerus -48.0007 -18.516 -75.7684
rradius 43.0153
rwrist -11.6707
rhand -17.2808 13.9595
rfingers 7.12502
rthumb 8.96443 -15.8301
lclavicle -5.64548e-014 -2.54444e-014
lhumerus -34.4678 3.87294 94.5015
lradius 70.9749
lwrist 7.60045
lhand -32.6562 39.0657
lfingers 7.12502
lthumb -5.88226 68.9641
rfemur -25.0503 -21.6373 36.0579
rtibia 50.9346
rfoot -27.1452 -36.3111
rtoes 22.3457
lfemur -36.436 -15.9274 7.88309
ltibia 45.3778
lfoot -16.7928 -4.21537
ltoes -22.5765
644
root 6.94894 14.7376 -0.312497 20.0844 -50.2405 -18.672
lowerback 9.65029 0.798544 -5.57717
upperback 1.2145 0.559588 2.41344
thorax -4.2274 0.37661 5.61382
lowerneck -16.6978 -1.80935 2.32625
upperneck 15.2665 -6.01606 14.1713
head 7.95617 -1.4647 3.612
rclavicle 3.61788e-014 -3.18055e-015
rhumerus -47.5492 -18.3503 -76.0957
rradius 43.563
rwrist -11.6317
rhand -17.6757 14.1724
rfingers 7.12502
rthumb 8.58331 -15.6332
lclavicle 3.61788e-014 -3.18055e-015
lhumerus -34.4711 3.94901 94.5463
lradius 70.8436
lwrist 7.49403
lhand -32.8662 39.0879
lfingers 7.12502
lthumb -6.08499 68.9805
rfemur -25.5645 -21.2337 36.2166
rtibia 51.4282
rfoot -27.2944 -36.5275
rtoes 22.6388
lfemur -36.905 -16.1408 8.07502
ltibia 45.7336
lfoot -16.9506 -3.74766
ltoes -22.7322
645
root 6.97919 14.722 -0.301651 20.4453 -50.1494 -18.9079
lowerback 10.0324 0.789104 -5.46926
upperback 1.32418 0.543531 2.55422
thorax -4.32364 0.366796 5.70516
lowerneck -16.579 -1.69806 2.45742
upperneck 14.7707 -5.78243 14.052
head 7.74608 -1.39092 3.56918
rclavicle 1.64991e-013 -1.59028e-015
rhumerus -47.1313 -18.0996 -76.4467
rradius 44.1428
rwrist -11.4763
rhand -17.9335 14.3287
rfingers 7.12502
rthumb 8.33449 -15.4869
lclavicle 1.64991e-013 -1.59028e-015
lhumerus -34.467 4.06009 94.6002
lradius 70.7135
lwrist 7.37331
lhand -33.0445 39.0344
lfingers 7.12502
lthumb -6.2572 68.922
rfemur -26.0895 -20.7885 36.3807
rtibia 51.9219
rfoot -27.3219 -36.6741
rtoes 22.8388
lfemur -37.3736 -16.4162 8.32245
ltibia 46.0676
lfoot -17.085 -3.20583
ltoes -22.8401
646
root 7.00988 14.72 -0.293254 20.8655 -50.0726 -19.1911
lowerback 10.4247 0.791453 -5.30378
upperback 1.42081 0.549993 2.69293
thorax -4.44158 0.368124 5.75868
lowerneck -16.4825 -1.60447 2.54141
upperneck 14.3156 -5.57886 13.9707
head 7.55964 -1.32722 3.54415
rclavicle 3.73715e-014 0
rhumerus -46.7478 -17.7877 -76.8011
rradius 44.7533
rwrist -11.2049
rhand -18.0476 14.4404
rfingers 7.12502
rthumb 8.22439 -15.3795
lclavicle 3.73715e-014 0
lhumerus -34.4497 4.19524 94.6669
lradius 70.5846
lwrist 7.24754
lhand -33.1867 38.9412
lfingers 7.12502
lthumb -6.39448 68.8247
rfemur -26.5874 -20.2825 36.5484
rtibia 52.3775
rfoot -27.209 -36.731
rtoes 22.9203
lfemur -37.809 -16.7399 8.62108
ltibia 46.3541
lfoot -17.2041 -2.61577
ltoes -22.8731
647
root 7.04327 14.7027 -0.28362 21.3241 -50.0069 -19.4912
lowerback 10.8317 0.800047 -5.0918
upperback 1.50044 0.570693 2.82308
thorax -4.58685 0.376859 5.77471
lowerneck -16.404 -1.53182 2.56607
upperneck 13.8953 -5.40681 13.9365
head 7.39411 -1.27477 3.54157
rclavicle 4.21423e-014 6.83819e-014
rhumerus -46.3994 -17.4164 -77.1547
rradius 45.3792
rwrist -10.8283
rhand -18.0546 14.5835
rfingers 7.12502
rthumb 8.2176 -15.2366
lclavicle 4.21423e-014 6.83819e-014
lhumerus -34.4247 4.35043 94.742
lradius 70.464
lwrist 7.129
lhand -33.2882 38.825
lfingers 7.12502
lthumb -6.49241 68.7055
rfemur -27.154 -19.7229 36.6763
rtibia 52.9129
rfoot -26.9521 -36.6697
rtoes 22.8566
lfemur -38.349 -17.0951 8.9628
ltibia 46.7141
lfoot -17.2988 -2.01237
ltoes -22.8048
648
root 7.07767 14.6842 -0.274687 21.7946 -49.9481 -19.7816
lowerback 11.2454 0.820932 -4.85459
upperback 1.57223 0.612061 2.94196
thorax -4.74611 0.395715 5.76121
lowerneck -16.3314 -1.48893 2.53472
upperneck 13.48 -5.27211 13.9438
head 7.23705 -1.23887 3.55773
rclavicle 1.31198e-014 -3.65764e-014
rhumerus -46.0859 -17.0322 -77.4873
rradius 46.0173
rwrist -10.3504
rhand -18.001 14.7952
rfingers 7.12502
rthumb 8.26935 -15.0229
lclavicle 1.31198e-014 -3.65764e-014
lhumerus -34.3868 4.49501 94.8341
lradius 70.3576
lwrist 7.02718
lhand -33.3496 38.6865
lfingers 7.12502
lthumb -6.55171 68.5651
rfemur -27.7243 -19.1113 36.7487
rtibia 53.4622
rfoot -26.5522 -36.4894
rtoes 22.6058
lfemur -38.9342 -17.4755 9.32081
ltibia 47.1019
lfoot -17.3783 -1.41025
ltoes -22.6229
649
root 7.11297 14.6644 -0.266913 22.2587 -49.8957 -20.0428
lowerback 11.6736 0.851587 -4.61013
upperback 1.63522 0.668465 3.04675
thorax -4.92412 0.42228 5.72609
lowerneck -16.2484 -1.47107 2.45325
upperneck 13.0561 -5.16492 13.9863
head 7.07999 -1.21651 3.59044
rclavicle -1.06549e-013 -2.06736e-014
rhumerus -45.8086 -16.6453 -77.7968
rradius 46.6618
rwrist -9.79717
rhand -17.9302 15.0873
rfingers 7.12502
rthumb 8.33771 -14.7282
lclavicle -1.06549e-013 -2.06736e-014
lhumerus -34.343 4.62682 94.9384
lradius 70.275
lwrist 6.94805
lhand -33.3888 38.5672
lfingers 7.12502
lthumb -6.58957 68.4446
rfemur -28.3017 -18.453 36.7536
rtibia 54.0501
rfoot -26.0706 -36.1917
rtoes 22.1449
lfemur -39.5847 -17.862 9.67801
ltibia 47.5645
lfoot -17.4709 -0.82358
ltoes -22.3179
